{
	"patcher" : 	{
		"fileversion" : 1,
		"appversion" : 		{
			"major" : 8,
			"minor" : 5,
			"revision" : 6,
			"architecture" : "x64",
			"modernui" : 1
		}
,
		"classnamespace" : "box",
		"rect" : [ 127.0, 129.0, 964.0, 587.0 ],
		"bglocked" : 0,
		"openinpresentation" : 1,
		"default_fontsize" : 11.0,
		"default_fontface" : 0,
		"default_fontname" : "Arial",
		"gridonopen" : 1,
		"gridsize" : [ 15.0, 15.0 ],
		"gridsnaponopen" : 1,
		"objectsnaponopen" : 1,
		"statusbarvisible" : 2,
		"toolbarvisible" : 1,
		"lefttoolbarpinned" : 0,
		"toptoolbarpinned" : 0,
		"righttoolbarpinned" : 0,
		"bottomtoolbarpinned" : 0,
		"toolbars_unpinned_last_save" : 4,
		"tallnewobj" : 0,
		"boxanimatetime" : 200,
		"enablehscroll" : 1,
		"enablevscroll" : 1,
		"devicewidth" : 0.0,
		"description" : "",
		"digest" : "",
		"tags" : "",
		"style" : "",
		"subpatcher_template" : "",
		"assistshowspatchername" : 0,
		"boxes" : [ 			{
				"box" : 				{
					"bgcolor" : [ 0.298039215686275, 0.298039215686275, 0.298039215686275, 1.0 ],
					"fontname" : "Arial",
					"fontsize" : 12.0,
					"id" : "obj-98",
					"maxclass" : "comment",
					"numinlets" : 1,
					"numoutlets" : 0,
					"patching_rect" : [ 797.416661128401756, 25.499993979930878, 203.500010102987289, 20.0 ],
					"presentation" : 1,
					"presentation_rect" : [ 707.416661128401756, 25.499993979930878, 203.500010102987289, 20.0 ],
					"text" : "PAR LINE 3 (Adress:21)",
					"textcolor" : [ 1.0, 1.0, 1.0, 1.0 ]
				}

			}
, 			{
				"box" : 				{
					"id" : "obj-99",
					"maxclass" : "comment",
					"numinlets" : 1,
					"numoutlets" : 0,
					"patching_rect" : [ 974.33333720266819, 56.0, 44.583339661359787, 19.0 ],
					"presentation" : 1,
					"presentation_rect" : [ 881.33333720266819, 56.0, 44.583339661359787, 19.0 ],
					"text" : "Strobe"
				}

			}
, 			{
				"box" : 				{
					"id" : "obj-103",
					"knobcolor" : [ 0.870588235294118, 0.866666666666667, 0.866666666666667, 1.0 ],
					"maxclass" : "slider",
					"min" : 190.0,
					"numinlets" : 1,
					"numoutlets" : 1,
					"orientation" : 2,
					"outlettype" : [ "" ],
					"parameter_enable" : 0,
					"patching_rect" : [ 973.33333720266819, 87.966673612594604, 24.0, 66.0 ],
					"presentation" : 1,
					"presentation_rect" : [ 880.33333720266819, 87.966673612594604, 25.0, 109.0 ],
					"size" : 65.0
				}

			}
, 			{
				"box" : 				{
					"id" : "obj-104",
					"maxclass" : "comment",
					"numinlets" : 1,
					"numoutlets" : 0,
					"patching_rect" : [ 864.416670426726341, 56.0, 18.583339661359787, 19.0 ],
					"presentation" : 1,
					"presentation_rect" : [ 774.416670426726341, 56.0, 18.583339661359787, 19.0 ],
					"text" : "B"
				}

			}
, 			{
				"box" : 				{
					"id" : "obj-110",
					"maxclass" : "comment",
					"numinlets" : 1,
					"numoutlets" : 0,
					"patching_rect" : [ 831.149996384978294, 56.0, 18.583339661359787, 19.0 ],
					"presentation" : 1,
					"presentation_rect" : [ 741.149996384978294, 56.0, 18.583339661359787, 19.0 ],
					"text" : "G"
				}

			}
, 			{
				"box" : 				{
					"id" : "obj-111",
					"maxclass" : "comment",
					"numinlets" : 1,
					"numoutlets" : 0,
					"patching_rect" : [ 802.874991297721863, 56.0, 18.583339661359787, 19.0 ],
					"presentation" : 1,
					"presentation_rect" : [ 712.874991297721863, 56.0, 18.583339661359787, 19.0 ],
					"text" : "R"
				}

			}
, 			{
				"box" : 				{
					"id" : "obj-112",
					"maxclass" : "comment",
					"numinlets" : 1,
					"numoutlets" : 0,
					"patching_rect" : [ 902.749997541308403, 56.0, 30.0, 19.0 ],
					"presentation" : 1,
					"presentation_rect" : [ 809.749997541308403, 56.0, 30.0, 19.0 ],
					"text" : "W"
				}

			}
, 			{
				"box" : 				{
					"id" : "obj-113",
					"maxclass" : "comment",
					"numinlets" : 1,
					"numoutlets" : 0,
					"patching_rect" : [ 943.749997541308403, 56.0, 18.583339661359787, 19.0 ],
					"presentation" : 1,
					"presentation_rect" : [ 850.749997541308403, 56.0, 18.583339661359787, 19.0 ],
					"text" : "M"
				}

			}
, 			{
				"box" : 				{
					"id" : "obj-114",
					"knobcolor" : [ 0.498039215686275, 0.72156862745098, 0.494117647058824, 1.0 ],
					"maxclass" : "slider",
					"numinlets" : 1,
					"numoutlets" : 1,
					"orientation" : 2,
					"outlettype" : [ "" ],
					"parameter_enable" : 0,
					"patching_rect" : [ 831.149996384978294, 87.966673612594604, 24.0, 66.0 ],
					"presentation" : 1,
					"presentation_rect" : [ 741.149996384978294, 87.966673612594604, 25.0, 109.0 ],
					"size" : 255.0
				}

			}
, 			{
				"box" : 				{
					"fontname" : "Arial",
					"fontsize" : 9.0,
					"id" : "obj-115",
					"maxclass" : "message",
					"numinlets" : 2,
					"numoutlets" : 1,
					"outlettype" : [ "" ],
					"patching_rect" : [ 896.74998764693737, 170.000008046627045, 31.0, 19.0 ],
					"text" : "25 $1"
				}

			}
, 			{
				"box" : 				{
					"id" : "obj-116",
					"knobcolor" : [ 1.0, 1.0, 1.0, 0.9 ],
					"maxclass" : "slider",
					"numinlets" : 1,
					"numoutlets" : 1,
					"orientation" : 2,
					"outlettype" : [ "" ],
					"parameter_enable" : 0,
					"patching_rect" : [ 902.749997541308403, 87.966673612594604, 24.0, 66.0 ],
					"presentation" : 1,
					"presentation_rect" : [ 809.749997541308403, 87.966673612594604, 25.0, 109.0 ],
					"size" : 255.0
				}

			}
, 			{
				"box" : 				{
					"fontname" : "Arial",
					"fontsize" : 9.0,
					"id" : "obj-117",
					"maxclass" : "message",
					"numinlets" : 2,
					"numoutlets" : 1,
					"outlettype" : [ "" ],
					"patching_rect" : [ 937.333327308297157, 170.000008046627045, 31.0, 19.0 ],
					"text" : "24 $1"
				}

			}
, 			{
				"box" : 				{
					"id" : "obj-118",
					"knobcolor" : [ 0.870588235294118, 0.866666666666667, 0.866666666666667, 1.0 ],
					"maxclass" : "slider",
					"numinlets" : 1,
					"numoutlets" : 1,
					"orientation" : 2,
					"outlettype" : [ "" ],
					"parameter_enable" : 0,
					"patching_rect" : [ 939.33333720266819, 87.966673612594604, 24.0, 66.0 ],
					"presentation" : 1,
					"presentation_rect" : [ 846.33333720266819, 87.966673612594604, 25.0, 109.0 ],
					"size" : 189.0
				}

			}
, 			{
				"box" : 				{
					"fontname" : "Arial",
					"fontsize" : 9.0,
					"id" : "obj-119",
					"maxclass" : "message",
					"numinlets" : 2,
					"numoutlets" : 1,
					"outlettype" : [ "" ],
					"patching_rect" : [ 857.416660532355309, 171.766687989234924, 31.0, 19.0 ],
					"text" : "23 $1"
				}

			}
, 			{
				"box" : 				{
					"id" : "obj-120",
					"knobcolor" : [ 0.584313725490196, 0.698039215686274, 0.831372549019608, 1.0 ],
					"maxclass" : "slider",
					"numinlets" : 1,
					"numoutlets" : 1,
					"orientation" : 2,
					"outlettype" : [ "" ],
					"parameter_enable" : 0,
					"patching_rect" : [ 864.416670426726341, 87.966673612594604, 24.0, 66.0 ],
					"presentation" : 1,
					"presentation_rect" : [ 774.416670426726341, 87.966673612594604, 25.0, 109.0 ],
					"size" : 255.0
				}

			}
, 			{
				"box" : 				{
					"fontname" : "Arial",
					"fontsize" : 9.0,
					"id" : "obj-121",
					"maxclass" : "message",
					"numinlets" : 2,
					"numoutlets" : 1,
					"outlettype" : [ "" ],
					"patching_rect" : [ 835.149996384978294, 171.766687989234924, 31.0, 19.0 ],
					"text" : "22 $1"
				}

			}
, 			{
				"box" : 				{
					"id" : "obj-122",
					"maxclass" : "newobj",
					"numinlets" : 1,
					"numoutlets" : 0,
					"patching_rect" : [ 797.399996384978294, 202.766688048839569, 64.0, 21.0 ],
					"text" : "s dmxdata"
				}

			}
, 			{
				"box" : 				{
					"fontname" : "Arial",
					"fontsize" : 9.0,
					"id" : "obj-123",
					"maxclass" : "message",
					"numinlets" : 2,
					"numoutlets" : 1,
					"outlettype" : [ "" ],
					"patching_rect" : [ 797.416661128401756, 171.766687989234924, 31.0, 19.0 ],
					"presentation_linecount" : 2,
					"text" : "21 $1"
				}

			}
, 			{
				"box" : 				{
					"id" : "obj-124",
					"knobcolor" : [ 0.631372549019608, 0.392156862745098, 0.36078431372549, 1.0 ],
					"maxclass" : "slider",
					"numinlets" : 1,
					"numoutlets" : 1,
					"orientation" : 2,
					"outlettype" : [ "" ],
					"parameter_enable" : 0,
					"patching_rect" : [ 797.416661128401756, 87.966673612594604, 24.0, 66.0 ],
					"presentation" : 1,
					"presentation_rect" : [ 707.416661128401756, 87.966673612594604, 25.0, 109.0 ],
					"size" : 255.0
				}

			}
, 			{
				"box" : 				{
					"id" : "obj-97",
					"linecount" : 5,
					"maxclass" : "comment",
					"numinlets" : 1,
					"numoutlets" : 0,
					"patching_rect" : [ 335.649998843669891, 228.5, 215.0, 68.0 ],
					"presentation_linecount" : 6,
					"text" : "1 - R\n2 - G\n3 - B\n4 - Master (0-189) Strobe (190 - 254)\n5  White"
				}

			}
, 			{
				"box" : 				{
					"id" : "obj-96",
					"linecount" : 6,
					"maxclass" : "comment",
					"numinlets" : 1,
					"numoutlets" : 0,
					"patching_rect" : [ 25.999997586011887, 222.5, 150.0, 80.0 ],
					"presentation_linecount" : 6,
					"text" : "1 - Master\n2 - Strobe Mode\n3 - Strobe Speed\n4 - R\n5 - G\n6 - B"
				}

			}
, 			{
				"box" : 				{
					"fontname" : "Arial",
					"fontsize" : 9.0,
					"id" : "obj-93",
					"maxclass" : "message",
					"numinlets" : 2,
					"numoutlets" : 1,
					"outlettype" : [ "" ],
					"patching_rect" : [ 178.399998843669891, 128.500016212463379, 36.0, 19.0 ],
					"text" : "0"
				}

			}
, 			{
				"box" : 				{
					"fontname" : "Arial",
					"fontsize" : 9.0,
					"id" : "obj-92",
					"maxclass" : "message",
					"numinlets" : 2,
					"numoutlets" : 1,
					"outlettype" : [ "" ],
					"patching_rect" : [ 216.399998843669891, 128.500016212463379, 36.0, 19.0 ],
					"text" : "255"
				}

			}
, 			{
				"box" : 				{
					"id" : "obj-91",
					"maxclass" : "newobj",
					"numinlets" : 2,
					"numoutlets" : 2,
					"outlettype" : [ "bang", "" ],
					"patching_rect" : [ 178.399998843669891, 103.966673612594604, 64.0, 21.0 ],
					"text" : "sel 254"
				}

			}
, 			{
				"box" : 				{
					"bgcolor" : [ 0.298039215686275, 0.298039215686275, 0.298039215686275, 1.0 ],
					"fontname" : "Arial",
					"fontsize" : 12.0,
					"id" : "obj-37",
					"maxclass" : "comment",
					"numinlets" : 1,
					"numoutlets" : 0,
					"patching_rect" : [ 565.416661128401756, 25.499993979930878, 203.500010102987289, 20.0 ],
					"presentation" : 1,
					"presentation_rect" : [ 475.416661128401756, 25.499993979930878, 203.500010102987289, 20.0 ],
					"text" : "PAR LINE 2 (Adress:11)",
					"textcolor" : [ 1.0, 1.0, 1.0, 1.0 ]
				}

			}
, 			{
				"box" : 				{
					"id" : "obj-38",
					"maxclass" : "comment",
					"numinlets" : 1,
					"numoutlets" : 0,
					"patching_rect" : [ 742.33333720266819, 56.0, 44.583339661359787, 19.0 ],
					"presentation" : 1,
					"presentation_rect" : [ 649.33333720266819, 56.0, 44.583339661359787, 19.0 ],
					"text" : "Strobe"
				}

			}
, 			{
				"box" : 				{
					"id" : "obj-41",
					"knobcolor" : [ 0.870588235294118, 0.866666666666667, 0.866666666666667, 1.0 ],
					"maxclass" : "slider",
					"min" : 190.0,
					"numinlets" : 1,
					"numoutlets" : 1,
					"orientation" : 2,
					"outlettype" : [ "" ],
					"parameter_enable" : 0,
					"patching_rect" : [ 741.33333720266819, 87.966673612594604, 24.0, 66.0 ],
					"presentation" : 1,
					"presentation_rect" : [ 648.33333720266819, 87.966673612594604, 25.0, 109.0 ],
					"size" : 65.0
				}

			}
, 			{
				"box" : 				{
					"id" : "obj-43",
					"maxclass" : "comment",
					"numinlets" : 1,
					"numoutlets" : 0,
					"patching_rect" : [ 632.416670426726341, 56.0, 18.583339661359787, 19.0 ],
					"presentation" : 1,
					"presentation_rect" : [ 542.416670426726341, 56.0, 18.583339661359787, 19.0 ],
					"text" : "B"
				}

			}
, 			{
				"box" : 				{
					"id" : "obj-44",
					"maxclass" : "comment",
					"numinlets" : 1,
					"numoutlets" : 0,
					"patching_rect" : [ 599.149996384978294, 56.0, 18.583339661359787, 19.0 ],
					"presentation" : 1,
					"presentation_rect" : [ 509.149996384978294, 56.0, 18.583339661359787, 19.0 ],
					"text" : "G"
				}

			}
, 			{
				"box" : 				{
					"id" : "obj-48",
					"maxclass" : "comment",
					"numinlets" : 1,
					"numoutlets" : 0,
					"patching_rect" : [ 570.874991297721863, 56.0, 18.583339661359787, 19.0 ],
					"presentation" : 1,
					"presentation_rect" : [ 480.874991297721863, 56.0, 18.583339661359787, 19.0 ],
					"text" : "R"
				}

			}
, 			{
				"box" : 				{
					"id" : "obj-50",
					"maxclass" : "comment",
					"numinlets" : 1,
					"numoutlets" : 0,
					"patching_rect" : [ 670.749997541308403, 56.0, 30.0, 19.0 ],
					"presentation" : 1,
					"presentation_rect" : [ 577.749997541308403, 56.0, 30.0, 19.0 ],
					"text" : "W"
				}

			}
, 			{
				"box" : 				{
					"id" : "obj-51",
					"maxclass" : "comment",
					"numinlets" : 1,
					"numoutlets" : 0,
					"patching_rect" : [ 711.749997541308403, 56.0, 18.583339661359787, 19.0 ],
					"presentation" : 1,
					"presentation_rect" : [ 618.749997541308403, 56.0, 18.583339661359787, 19.0 ],
					"text" : "M"
				}

			}
, 			{
				"box" : 				{
					"id" : "obj-52",
					"knobcolor" : [ 0.498039215686275, 0.72156862745098, 0.494117647058824, 1.0 ],
					"maxclass" : "slider",
					"numinlets" : 1,
					"numoutlets" : 1,
					"orientation" : 2,
					"outlettype" : [ "" ],
					"parameter_enable" : 0,
					"patching_rect" : [ 599.149996384978294, 87.966673612594604, 24.0, 66.0 ],
					"presentation" : 1,
					"presentation_rect" : [ 509.149996384978294, 87.966673612594604, 25.0, 109.0 ],
					"size" : 255.0
				}

			}
, 			{
				"box" : 				{
					"fontname" : "Arial",
					"fontsize" : 9.0,
					"id" : "obj-53",
					"maxclass" : "message",
					"numinlets" : 2,
					"numoutlets" : 1,
					"outlettype" : [ "" ],
					"patching_rect" : [ 664.74998764693737, 170.000008046627045, 31.0, 19.0 ],
					"presentation_linecount" : 2,
					"text" : "15 $1"
				}

			}
, 			{
				"box" : 				{
					"id" : "obj-54",
					"knobcolor" : [ 1.0, 1.0, 1.0, 0.9 ],
					"maxclass" : "slider",
					"numinlets" : 1,
					"numoutlets" : 1,
					"orientation" : 2,
					"outlettype" : [ "" ],
					"parameter_enable" : 0,
					"patching_rect" : [ 670.749997541308403, 87.966673612594604, 24.0, 66.0 ],
					"presentation" : 1,
					"presentation_rect" : [ 577.749997541308403, 87.966673612594604, 25.0, 109.0 ],
					"size" : 255.0
				}

			}
, 			{
				"box" : 				{
					"fontname" : "Arial",
					"fontsize" : 9.0,
					"id" : "obj-55",
					"maxclass" : "message",
					"numinlets" : 2,
					"numoutlets" : 1,
					"outlettype" : [ "" ],
					"patching_rect" : [ 705.333327308297157, 170.000008046627045, 31.0, 19.0 ],
					"presentation_linecount" : 2,
					"text" : "14 $1"
				}

			}
, 			{
				"box" : 				{
					"id" : "obj-56",
					"knobcolor" : [ 0.870588235294118, 0.866666666666667, 0.866666666666667, 1.0 ],
					"maxclass" : "slider",
					"numinlets" : 1,
					"numoutlets" : 1,
					"orientation" : 2,
					"outlettype" : [ "" ],
					"parameter_enable" : 0,
					"patching_rect" : [ 707.33333720266819, 87.966673612594604, 24.0, 66.0 ],
					"presentation" : 1,
					"presentation_rect" : [ 614.33333720266819, 87.966673612594604, 25.0, 109.0 ],
					"size" : 189.0
				}

			}
, 			{
				"box" : 				{
					"fontname" : "Arial",
					"fontsize" : 9.0,
					"id" : "obj-57",
					"maxclass" : "message",
					"numinlets" : 2,
					"numoutlets" : 1,
					"outlettype" : [ "" ],
					"patching_rect" : [ 625.416660532355309, 171.766687989234924, 31.0, 19.0 ],
					"presentation_linecount" : 2,
					"text" : "13 $1"
				}

			}
, 			{
				"box" : 				{
					"id" : "obj-59",
					"knobcolor" : [ 0.584313725490196, 0.698039215686274, 0.831372549019608, 1.0 ],
					"maxclass" : "slider",
					"numinlets" : 1,
					"numoutlets" : 1,
					"orientation" : 2,
					"outlettype" : [ "" ],
					"parameter_enable" : 0,
					"patching_rect" : [ 632.416670426726341, 87.966673612594604, 24.0, 66.0 ],
					"presentation" : 1,
					"presentation_rect" : [ 542.416670426726341, 87.966673612594604, 25.0, 109.0 ],
					"size" : 255.0
				}

			}
, 			{
				"box" : 				{
					"fontname" : "Arial",
					"fontsize" : 9.0,
					"id" : "obj-60",
					"maxclass" : "message",
					"numinlets" : 2,
					"numoutlets" : 1,
					"outlettype" : [ "" ],
					"patching_rect" : [ 603.149996384978294, 171.766687989234924, 31.0, 19.0 ],
					"presentation_linecount" : 2,
					"text" : "12 $1"
				}

			}
, 			{
				"box" : 				{
					"id" : "obj-61",
					"maxclass" : "newobj",
					"numinlets" : 1,
					"numoutlets" : 0,
					"patching_rect" : [ 565.399996384978294, 202.766688048839569, 64.0, 21.0 ],
					"text" : "s dmxdata"
				}

			}
, 			{
				"box" : 				{
					"fontname" : "Arial",
					"fontsize" : 9.0,
					"id" : "obj-62",
					"maxclass" : "message",
					"numinlets" : 2,
					"numoutlets" : 1,
					"outlettype" : [ "" ],
					"patching_rect" : [ 565.416661128401756, 171.766687989234924, 30.0, 19.0 ],
					"presentation_linecount" : 2,
					"text" : "11 $1"
				}

			}
, 			{
				"box" : 				{
					"id" : "obj-63",
					"knobcolor" : [ 0.631372549019608, 0.392156862745098, 0.36078431372549, 1.0 ],
					"maxclass" : "slider",
					"numinlets" : 1,
					"numoutlets" : 1,
					"orientation" : 2,
					"outlettype" : [ "" ],
					"parameter_enable" : 0,
					"patching_rect" : [ 565.416661128401756, 87.966673612594604, 24.0, 66.0 ],
					"presentation" : 1,
					"presentation_rect" : [ 475.416661128401756, 87.966673612594604, 25.0, 109.0 ],
					"size" : 255.0
				}

			}
, 			{
				"box" : 				{
					"bgcolor" : [ 0.298039215686275, 0.298039215686275, 0.298039215686275, 1.0 ],
					"fontname" : "Arial",
					"fontsize" : 12.0,
					"id" : "obj-36",
					"maxclass" : "comment",
					"numinlets" : 1,
					"numoutlets" : 0,
					"patching_rect" : [ 335.666663587093353, 25.499993979930878, 203.500010102987289, 20.0 ],
					"presentation" : 1,
					"presentation_rect" : [ 245.666663587093353, 25.499993979930878, 203.500010102987289, 20.0 ],
					"text" : "PAR LINE 1 (Adress:1)",
					"textcolor" : [ 1.0, 1.0, 1.0, 1.0 ]
				}

			}
, 			{
				"box" : 				{
					"id" : "obj-33",
					"maxclass" : "comment",
					"numinlets" : 1,
					"numoutlets" : 0,
					"patching_rect" : [ 512.583339661359787, 56.0, 44.583339661359787, 19.0 ],
					"presentation" : 1,
					"presentation_rect" : [ 419.583339661359787, 56.0, 44.583339661359787, 19.0 ],
					"text" : "Strobe"
				}

			}
, 			{
				"box" : 				{
					"id" : "obj-32",
					"knobcolor" : [ 0.870588235294118, 0.866666666666667, 0.866666666666667, 1.0 ],
					"maxclass" : "slider",
					"min" : 190.0,
					"numinlets" : 1,
					"numoutlets" : 1,
					"orientation" : 2,
					"outlettype" : [ "" ],
					"parameter_enable" : 0,
					"patching_rect" : [ 511.583339661359787, 87.966673612594604, 24.0, 66.0 ],
					"presentation" : 1,
					"presentation_rect" : [ 418.583339661359787, 87.966673612594604, 25.0, 109.0 ],
					"size" : 65.0
				}

			}
, 			{
				"box" : 				{
					"id" : "obj-27",
					"maxclass" : "comment",
					"numinlets" : 1,
					"numoutlets" : 0,
					"patching_rect" : [ 402.666672885417938, 56.0, 18.583339661359787, 19.0 ],
					"presentation" : 1,
					"presentation_rect" : [ 312.666672885417938, 56.0, 18.583339661359787, 19.0 ],
					"text" : "B"
				}

			}
, 			{
				"box" : 				{
					"id" : "obj-26",
					"maxclass" : "comment",
					"numinlets" : 1,
					"numoutlets" : 0,
					"patching_rect" : [ 369.399998843669891, 56.0, 18.583339661359787, 19.0 ],
					"presentation" : 1,
					"presentation_rect" : [ 279.399998843669891, 56.0, 18.583339661359787, 19.0 ],
					"text" : "G"
				}

			}
, 			{
				"box" : 				{
					"id" : "obj-25",
					"maxclass" : "comment",
					"numinlets" : 1,
					"numoutlets" : 0,
					"patching_rect" : [ 341.12499375641346, 56.0, 18.583339661359787, 19.0 ],
					"presentation" : 1,
					"presentation_rect" : [ 251.12499375641346, 56.0, 18.583339661359787, 19.0 ],
					"text" : "R"
				}

			}
, 			{
				"box" : 				{
					"id" : "obj-21",
					"maxclass" : "comment",
					"numinlets" : 1,
					"numoutlets" : 0,
					"patching_rect" : [ 441.0, 56.0, 30.0, 19.0 ],
					"presentation" : 1,
					"presentation_rect" : [ 348.0, 56.0, 30.0, 19.0 ],
					"text" : "W"
				}

			}
, 			{
				"box" : 				{
					"id" : "obj-18",
					"maxclass" : "comment",
					"numinlets" : 1,
					"numoutlets" : 0,
					"patching_rect" : [ 482.0, 56.0, 18.583339661359787, 19.0 ],
					"presentation" : 1,
					"presentation_rect" : [ 389.0, 56.0, 18.583339661359787, 19.0 ],
					"text" : "M"
				}

			}
, 			{
				"box" : 				{
					"fontname" : "Arial",
					"fontsize" : 12.0,
					"id" : "obj-12",
					"maxclass" : "comment",
					"numinlets" : 1,
					"numoutlets" : 0,
					"patching_rect" : [ 242.333340644836426, 59.0, 69.666666865348816, 20.0 ],
					"presentation" : 1,
					"presentation_rect" : [ 163.333340644836426, 59.0, 69.666666865348816, 20.0 ],
					"text" : "Strobe"
				}

			}
, 			{
				"box" : 				{
					"fontname" : "Arial",
					"fontsize" : 9.0,
					"id" : "obj-8",
					"maxclass" : "message",
					"numinlets" : 2,
					"numoutlets" : 1,
					"outlettype" : [ "" ],
					"patching_rect" : [ 92.749990701675415, 169.766687989234924, 36.0, 19.0 ],
					"text" : "105 $1"
				}

			}
, 			{
				"box" : 				{
					"id" : "obj-10",
					"knobcolor" : [ 0.584313725490196, 0.698039215686274, 0.831372549019608, 1.0 ],
					"maxclass" : "slider",
					"numinlets" : 1,
					"numoutlets" : 1,
					"orientation" : 2,
					"outlettype" : [ "" ],
					"parameter_enable" : 0,
					"patching_rect" : [ 92.750000596046448, 86.966673612594604, 24.0, 66.0 ],
					"presentation" : 1,
					"presentation_rect" : [ 92.750000596046448, 86.966673612594604, 25.0, 109.0 ],
					"size" : 255.0
				}

			}
, 			{
				"box" : 				{
					"fontname" : "Arial",
					"fontsize" : 11.0,
					"id" : "obj-7",
					"maxclass" : "message",
					"numinlets" : 2,
					"numoutlets" : 1,
					"outlettype" : [ "" ],
					"patching_rect" : [ 441.0, 491.499993860721588, 153.0, 21.0 ],
					"text" : "/dev/cu.usbserial-EN159845"
				}

			}
, 			{
				"box" : 				{
					"fontname" : "Arial",
					"fontsize" : 11.0,
					"id" : "obj-6",
					"maxclass" : "message",
					"numinlets" : 2,
					"numoutlets" : 1,
					"outlettype" : [ "" ],
					"patching_rect" : [ 441.0, 549.199993550777435, 40.0, 21.0 ],
					"text" : "COM3"
				}

			}
, 			{
				"box" : 				{
					"fontname" : "Arial",
					"fontsize" : 9.0,
					"id" : "obj-69",
					"maxclass" : "message",
					"numinlets" : 2,
					"numoutlets" : 1,
					"outlettype" : [ "" ],
					"patching_rect" : [ 55.666664481163025, 169.766687989234924, 36.0, 19.0 ],
					"text" : "104 $1"
				}

			}
, 			{
				"box" : 				{
					"fontname" : "Arial",
					"fontsize" : 12.0,
					"id" : "obj-72",
					"maxclass" : "comment",
					"numinlets" : 1,
					"numoutlets" : 0,
					"patching_rect" : [ 95.166675388813019, 58.76667994260788, 21.833333194255829, 20.0 ],
					"presentation" : 1,
					"presentation_rect" : [ 95.166675388813019, 58.76667994260788, 21.833333194255829, 20.0 ],
					"text" : "B"
				}

			}
, 			{
				"box" : 				{
					"id" : "obj-73",
					"knobcolor" : [ 0.498039215686275, 0.72156862745098, 0.494117647058824, 1.0 ],
					"maxclass" : "slider",
					"numinlets" : 1,
					"numoutlets" : 1,
					"orientation" : 2,
					"outlettype" : [ "" ],
					"parameter_enable" : 0,
					"patching_rect" : [ 55.666674375534058, 86.966673612594604, 24.0, 66.0 ],
					"presentation" : 1,
					"presentation_rect" : [ 55.666674375534058, 86.966673612594604, 25.0, 109.0 ],
					"size" : 255.0
				}

			}
, 			{
				"box" : 				{
					"fontname" : "Arial",
					"fontsize" : 9.0,
					"id" : "obj-74",
					"maxclass" : "message",
					"numinlets" : 2,
					"numoutlets" : 1,
					"outlettype" : [ "" ],
					"patching_rect" : [ 19.999997615814209, 169.766687989234924, 36.0, 19.0 ],
					"text" : "103 $1"
				}

			}
, 			{
				"box" : 				{
					"fontname" : "Arial",
					"fontsize" : 12.0,
					"id" : "obj-75",
					"maxclass" : "comment",
					"numinlets" : 1,
					"numoutlets" : 0,
					"patching_rect" : [ 58.500008523464203, 58.76667994260788, 21.833333194255829, 20.0 ],
					"presentation" : 1,
					"presentation_rect" : [ 58.500008523464203, 58.76667994260788, 21.833333194255829, 20.0 ],
					"text" : "G"
				}

			}
, 			{
				"box" : 				{
					"id" : "obj-76",
					"knobcolor" : [ 0.631372549019608, 0.392156862745098, 0.36078431372549, 1.0 ],
					"maxclass" : "slider",
					"numinlets" : 1,
					"numoutlets" : 1,
					"orientation" : 2,
					"outlettype" : [ "" ],
					"parameter_enable" : 0,
					"patching_rect" : [ 20.000007510185242, 86.966673612594604, 24.0, 66.0 ],
					"presentation" : 1,
					"presentation_rect" : [ 20.000007510185242, 86.966673612594604, 25.0, 109.0 ],
					"size" : 255.0
				}

			}
, 			{
				"box" : 				{
					"fontname" : "Arial",
					"fontsize" : 9.0,
					"id" : "obj-77",
					"maxclass" : "message",
					"numinlets" : 2,
					"numoutlets" : 1,
					"outlettype" : [ "" ],
					"patching_rect" : [ 256.133331120014191, 170.000008046627045, 36.0, 19.0 ],
					"text" : "102 $1"
				}

			}
, 			{
				"box" : 				{
					"fontname" : "Arial",
					"fontsize" : 12.0,
					"id" : "obj-78",
					"maxclass" : "comment",
					"numinlets" : 1,
					"numoutlets" : 0,
					"patching_rect" : [ 21.666672885417938, 58.76667994260788, 25.000001490116119, 20.0 ],
					"presentation" : 1,
					"presentation_rect" : [ 21.666672885417938, 58.76667994260788, 25.000001490116119, 20.0 ],
					"text" : "R"
				}

			}
, 			{
				"box" : 				{
					"id" : "obj-79",
					"knobcolor" : [ 0.870588235294118, 0.866666666666667, 0.866666666666667, 1.0 ],
					"maxclass" : "slider",
					"numinlets" : 1,
					"numoutlets" : 1,
					"orientation" : 2,
					"outlettype" : [ "" ],
					"parameter_enable" : 0,
					"patching_rect" : [ 262.133331120014191, 87.199993669986725, 24.0, 66.0 ],
					"presentation" : 1,
					"presentation_rect" : [ 167.133331120014191, 87.199993669986725, 25.0, 109.0 ],
					"size" : 255.0
				}

			}
, 			{
				"box" : 				{
					"fontname" : "Arial",
					"fontsize" : 9.0,
					"id" : "obj-80",
					"maxclass" : "message",
					"numinlets" : 2,
					"numoutlets" : 1,
					"outlettype" : [ "" ],
					"patching_rect" : [ 184.399998843669891, 170.000008046627045, 36.0, 19.0 ],
					"text" : "101 $1"
				}

			}
, 			{
				"box" : 				{
					"id" : "obj-83",
					"maxclass" : "newobj",
					"numinlets" : 1,
					"numoutlets" : 0,
					"patching_rect" : [ 141.649998843669891, 201.000008106231689, 64.0, 21.0 ],
					"text" : "s dmxdata"
				}

			}
, 			{
				"box" : 				{
					"fontname" : "Arial",
					"fontsize" : 9.0,
					"id" : "obj-84",
					"maxclass" : "message",
					"numinlets" : 2,
					"numoutlets" : 1,
					"outlettype" : [ "" ],
					"patching_rect" : [ 141.666663587093353, 170.000008046627045, 36.0, 19.0 ],
					"text" : "100 $1"
				}

			}
, 			{
				"box" : 				{
					"fontname" : "Arial",
					"fontsize" : 12.0,
					"id" : "obj-86",
					"maxclass" : "comment",
					"numinlets" : 1,
					"numoutlets" : 0,
					"patching_rect" : [ 133.999996721744537, 59.0, 21.066667497158051, 20.0 ],
					"presentation" : 1,
					"presentation_rect" : [ 132.999996721744537, 59.0, 21.066667497158051, 20.0 ],
					"text" : "M"
				}

			}
, 			{
				"box" : 				{
					"id" : "obj-87",
					"knobcolor" : [ 0.870588235294118, 0.866666666666667, 0.866666666666667, 1.0 ],
					"maxclass" : "slider",
					"numinlets" : 1,
					"numoutlets" : 1,
					"orientation" : 2,
					"outlettype" : [ "" ],
					"parameter_enable" : 0,
					"patching_rect" : [ 141.666663587093353, 86.199993669986725, 24.0, 66.0 ],
					"presentation" : 1,
					"presentation_rect" : [ 130.666663587093353, 86.199993669986725, 25.0, 109.0 ],
					"size" : 255.0
				}

			}
, 			{
				"box" : 				{
					"fontname" : "Arial",
					"fontsize" : 11.0,
					"id" : "obj-39",
					"maxclass" : "message",
					"numinlets" : 2,
					"numoutlets" : 1,
					"outlettype" : [ "" ],
					"patching_rect" : [ 441.0, 518.199993550777435, 153.0, 21.0 ],
					"text" : "/dev/cu.usbserial-EN169216"
				}

			}
, 			{
				"box" : 				{
					"bgcolor" : [ 0.482352941176471, 0.470588235294118, 0.470588235294118, 1.0 ],
					"bgcolor2" : [ 0.462745098039216, 0.458823529411765, 0.458823529411765, 1.0 ],
					"bgfillcolor_angle" : 270.0,
					"bgfillcolor_autogradient" : 0.0,
					"bgfillcolor_color" : [ 0.462745098039216, 0.458823529411765, 0.458823529411765, 1.0 ],
					"bgfillcolor_color1" : [ 0.482352941176471, 0.470588235294118, 0.470588235294118, 1.0 ],
					"bgfillcolor_color2" : [ 0.462745098039216, 0.458823529411765, 0.458823529411765, 1.0 ],
					"bgfillcolor_proportion" : 0.5,
					"bgfillcolor_type" : "gradient",
					"fontsize" : 10.0,
					"gradient" : 1,
					"id" : "obj-70",
					"maxclass" : "message",
					"numinlets" : 2,
					"numoutlets" : 1,
					"outlettype" : [ "" ],
					"patching_rect" : [ 434.666672170162201, 363.99999988079071, 31.0, 20.0 ],
					"text" : "open"
				}

			}
, 			{
				"box" : 				{
					"fontname" : "Arial",
					"fontsize" : 12.0,
					"id" : "obj-42",
					"maxclass" : "comment",
					"numinlets" : 1,
					"numoutlets" : 0,
					"patching_rect" : [ 347.499997079372406, 480.499993860721588, 54.333334624767303, 20.0 ],
					"presentation" : 1,
					"presentation_rect" : [ 326.833332806825638, 399.899991303682327, 54.333334624767303, 20.0 ],
					"text" : "sec"
				}

			}
, 			{
				"box" : 				{
					"bgcolor" : [ 0.301961, 0.301961, 0.301961, 0.0 ],
					"bgcolor2" : [ 0.301961, 0.301961, 0.301961, 0.0 ],
					"bgfillcolor_angle" : 270.0,
					"bgfillcolor_autogradient" : 0.0,
					"bgfillcolor_color" : [ 1.0, 1.0, 1.0, 0.0 ],
					"bgfillcolor_color1" : [ 0.301961, 0.301961, 0.301961, 0.0 ],
					"bgfillcolor_color2" : [ 0.2, 0.2, 0.2, 1.0 ],
					"bgfillcolor_proportion" : 0.5,
					"bgfillcolor_type" : "color",
					"gradient" : 1,
					"id" : "obj-40",
					"maxclass" : "message",
					"numinlets" : 2,
					"numoutlets" : 1,
					"outlettype" : [ "" ],
					"patching_rect" : [ 237.166673690080643, 479.999993860721588, 50.0, 21.0 ],
					"presentation" : 1,
					"presentation_rect" : [ 295.833332806825638, 399.399991303682327, 50.0, 21.0 ],
					"text" : "40",
					"textcolor" : [ 0.0, 0.0, 0.0, 1.0 ]
				}

			}
, 			{
				"box" : 				{
					"id" : "obj-24",
					"maxclass" : "newobj",
					"numinlets" : 2,
					"numoutlets" : 1,
					"outlettype" : [ "int" ],
					"patching_rect" : [ 237.166673690080643, 455.499993860721588, 39.0, 21.0 ],
					"text" : "/ 1000"
				}

			}
, 			{
				"box" : 				{
					"fontname" : "Arial",
					"fontsize" : 12.0,
					"id" : "obj-23",
					"maxclass" : "comment",
					"numinlets" : 1,
					"numoutlets" : 0,
					"patching_rect" : [ 291.166662454605103, 480.499993860721588, 54.333334624767303, 20.0 ],
					"presentation" : 1,
					"presentation_rect" : [ 239.499998182058334, 399.899991303682327, 54.333334624767303, 20.0 ],
					"text" : "Next in"
				}

			}
, 			{
				"box" : 				{
					"id" : "obj-20",
					"knobcolor" : [ 0.498039215686275, 0.72156862745098, 0.494117647058824, 1.0 ],
					"maxclass" : "slider",
					"numinlets" : 1,
					"numoutlets" : 1,
					"orientation" : 2,
					"outlettype" : [ "" ],
					"parameter_enable" : 0,
					"patching_rect" : [ 369.399998843669891, 87.966673612594604, 24.0, 66.0 ],
					"presentation" : 1,
					"presentation_rect" : [ 279.399998843669891, 87.966673612594604, 25.0, 109.0 ],
					"size" : 255.0
				}

			}
, 			{
				"box" : 				{
					"bubblesize" : 16,
					"id" : "obj-105",
					"maxclass" : "preset",
					"numinlets" : 1,
					"numoutlets" : 5,
					"outlettype" : [ "preset", "int", "preset", "int", "" ],
					"patching_rect" : [ 27.549998164176941, 374.899991303682327, 45.000000298023224, 85.799998819828033 ],
					"presentation" : 1,
					"presentation_rect" : [ 27.549998164176941, 374.899991303682327, 45.000000298023224, 85.799998819828033 ],
					"preset_data" : [ 						{
							"number" : 1,
							"data" : [ 5, "obj-159", "led", "int", 0, 5, "obj-387", "slider", "float", 254.0, 5, "obj-381", "slider", "float", 254.0, 5, "obj-378", "slider", "float", 0.0, 5, "obj-375", "slider", "float", 0.0, 5, "obj-20", "slider", "float", 254.0, 5, "obj-87", "slider", "float", 198.0, 5, "obj-79", "slider", "float", 254.0, 5, "obj-76", "slider", "float", 138.0, 5, "obj-73", "slider", "float", 211.0, 5, "obj-10", "slider", "float", 101.0, 5, "obj-32", "slider", "float", 13.0, 5, "obj-63", "slider", "float", 152.0, 5, "obj-59", "slider", "float", 137.0, 5, "obj-56", "slider", "float", 167.0, 5, "obj-54", "slider", "float", 224.0, 5, "obj-52", "slider", "float", 157.0, 5, "obj-41", "slider", "float", 45.0, 5, "obj-124", "slider", "float", 156.0, 5, "obj-120", "slider", "float", 0.0, 5, "obj-118", "slider", "float", 0.0, 5, "obj-116", "slider", "float", 0.0, 5, "obj-114", "slider", "float", 183.0, 5, "obj-103", "slider", "float", 0.0 ]
						}
, 						{
							"number" : 2,
							"data" : [ 5, "<invalid>", "toggle", "int", 0, 5, "<invalid>", "number", "int", 26, 5, "<invalid>", "number", "int", 0, 5, "<invalid>", "toggle", "int", 0, 5, "<invalid>", "toggle", "int", 1, 5, "<invalid>", "slider", "float", 0.0, 5, "<invalid>", "slider", "float", 26.0, 5, "obj-159", "led", "int", 0, 5, "<invalid>", "slider", "float", 0.0, 5, "<invalid>", "slider", "float", 0.0, 5, "<invalid>", "radiogroup", "int", 3, 5, "<invalid>", "number", "int", 0, 5, "<invalid>", "radiogroup", "int", 1, 5, "<invalid>", "number", "int", 0, 5, "obj-387", "slider", "float", 254.0, 5, "obj-381", "slider", "float", 0.0, 5, "obj-378", "slider", "float", 108.0, 5, "obj-375", "slider", "float", 0.0, 5, "<invalid>", "number", "int", 207, 5, "<invalid>", "slider", "float", 197.0, 5, "<invalid>", "toggle", "int", 0, 5, "<invalid>", "number", "int", 323, 5, "<invalid>", "slider", "float", 313.0, 5, "<invalid>", "number", "int", 28, 5, "<invalid>", "slider", "float", 18.0, 5, "<invalid>", "toggle", "int", 0, 5, "<invalid>", "slider", "float", 0.0, 5, "<invalid>", "slider", "float", 254.0, 5, "<invalid>", "number", "int", 23, 5, "<invalid>", "slider", "float", 13.0, 5, "<invalid>", "number", "int", 56, 5, "<invalid>", "slider", "float", 46.0, 5, "obj-20", "slider", "float", 27.0, 5, "<invalid>", "toggle", "int", 0, 5, "<invalid>", "number", "int", 40, 5, "<invalid>", "slider", "float", 30.0, 8, "<invalid>", "radiogroup", "list", 0, 0, 0, 0, 5, "<invalid>", "slider", "float", 5.178571224212646, 5, "<invalid>", "number", "int", 5 ]
						}
, 						{
							"number" : 3,
							"data" : [ 5, "<invalid>", "toggle", "int", 1, 5, "<invalid>", "number", "int", 66, 5, "<invalid>", "number", "int", 0, 5, "<invalid>", "toggle", "int", 1, 5, "<invalid>", "toggle", "int", 0, 5, "<invalid>", "slider", "float", 0.0, 5, "<invalid>", "slider", "float", 66.0, 5, "obj-159", "led", "int", 0, 5, "<invalid>", "slider", "float", 0.0, 5, "<invalid>", "slider", "float", 0.0, 5, "<invalid>", "radiogroup", "int", 3, 5, "<invalid>", "number", "int", 0, 5, "<invalid>", "radiogroup", "int", 1, 5, "<invalid>", "number", "int", 0, 5, "obj-387", "slider", "float", 254.0, 5, "obj-381", "slider", "float", 254.0, 5, "obj-378", "slider", "float", 0.0, 5, "obj-375", "slider", "float", 0.0, 5, "<invalid>", "number", "int", 88, 5, "<invalid>", "slider", "float", 78.0, 5, "<invalid>", "toggle", "int", 0, 5, "<invalid>", "number", "int", 323, 5, "<invalid>", "slider", "float", 313.0, 5, "<invalid>", "number", "int", 28, 5, "<invalid>", "slider", "float", 18.0, 5, "<invalid>", "toggle", "int", 0, 5, "<invalid>", "slider", "float", 0.0, 5, "<invalid>", "slider", "float", 254.0, 5, "<invalid>", "number", "int", 10, 5, "<invalid>", "slider", "float", 0.0, 5, "<invalid>", "number", "int", 93, 5, "<invalid>", "slider", "float", 83.0, 5, "obj-20", "slider", "float", 254.0, 5, "<invalid>", "toggle", "int", 0, 5, "<invalid>", "number", "int", 40, 5, "<invalid>", "slider", "float", 30.0, 8, "<invalid>", "radiogroup", "list", 0, 0, 0, 0, 5, "<invalid>", "slider", "float", 5.178571224212646, 5, "<invalid>", "number", "int", 5 ]
						}
, 						{
							"number" : 4,
							"data" : [ 5, "<invalid>", "toggle", "int", 0, 5, "<invalid>", "number", "int", 54, 5, "<invalid>", "number", "int", 0, 5, "<invalid>", "toggle", "int", 1, 5, "<invalid>", "toggle", "int", 1, 5, "<invalid>", "slider", "float", 0.0, 5, "<invalid>", "slider", "float", 54.0, 5, "obj-159", "led", "int", 0, 5, "<invalid>", "slider", "float", 143.0, 5, "<invalid>", "slider", "float", 128.0, 5, "<invalid>", "radiogroup", "int", 1, 5, "<invalid>", "number", "int", 64, 5, "<invalid>", "radiogroup", "int", 0, 5, "<invalid>", "number", "int", 0, 5, "obj-387", "slider", "float", 254.0, 5, "obj-381", "slider", "float", 0.0, 5, "obj-378", "slider", "float", 0.0, 5, "obj-375", "slider", "float", 254.0, 5, "<invalid>", "number", "int", 88, 5, "<invalid>", "slider", "float", 78.0, 5, "<invalid>", "toggle", "int", 0, 5, "<invalid>", "number", "int", 323, 5, "<invalid>", "slider", "float", 313.0, 5, "<invalid>", "number", "int", 28, 5, "<invalid>", "slider", "float", 18.0, 5, "<invalid>", "toggle", "int", 0, 5, "<invalid>", "slider", "float", 0.0, 5, "<invalid>", "slider", "float", 254.0, 5, "<invalid>", "number", "int", 45, 5, "<invalid>", "slider", "float", 35.0, 5, "<invalid>", "number", "int", 93, 5, "<invalid>", "slider", "float", 83.0, 5, "obj-20", "slider", "float", 154.0, 5, "<invalid>", "toggle", "int", 0, 5, "<invalid>", "number", "int", 40, 5, "<invalid>", "slider", "float", 30.0, 8, "<invalid>", "radiogroup", "list", 0, 0, 0, 0, 5, "<invalid>", "slider", "float", 5.178571224212646, 5, "<invalid>", "number", "int", 5 ]
						}
, 						{
							"number" : 5,
							"data" : [ 5, "<invalid>", "toggle", "int", 0, 5, "<invalid>", "number", "int", 0, 5, "<invalid>", "number", "int", 0, 5, "<invalid>", "toggle", "int", 0, 5, "<invalid>", "toggle", "int", 0, 5, "<invalid>", "slider", "float", 0.0, 5, "<invalid>", "slider", "float", 0.0, 5, "obj-159", "led", "int", 0, 5, "<invalid>", "slider", "float", 0.0, 5, "<invalid>", "slider", "float", 0.0, 5, "<invalid>", "radiogroup", "int", 3, 5, "<invalid>", "number", "int", 0, 5, "<invalid>", "radiogroup", "int", 1, 5, "<invalid>", "number", "int", 0, 5, "obj-387", "slider", "float", 104.0, 5, "obj-381", "slider", "float", 0.0, 5, "obj-378", "slider", "float", 254.0, 5, "obj-375", "slider", "float", 0.0, 5, "<invalid>", "number", "int", 88, 5, "<invalid>", "slider", "float", 78.0, 5, "<invalid>", "toggle", "int", 1, 5, "<invalid>", "number", "int", 465, 5, "<invalid>", "slider", "float", 455.0, 5, "<invalid>", "number", "int", 28, 5, "<invalid>", "slider", "float", 18.0, 5, "<invalid>", "toggle", "int", 0, 5, "<invalid>", "slider", "float", 0.0, 5, "<invalid>", "slider", "float", 254.0, 5, "<invalid>", "number", "int", 45, 5, "<invalid>", "slider", "float", 35.0, 5, "<invalid>", "number", "int", 93, 5, "<invalid>", "slider", "float", 83.0, 5, "obj-20", "slider", "float", 0.0, 5, "<invalid>", "toggle", "int", 0, 5, "<invalid>", "number", "int", 40, 5, "<invalid>", "slider", "float", 30.0, 8, "<invalid>", "radiogroup", "list", 0, 0, 0, 0, 5, "<invalid>", "slider", "float", 5.178571224212646, 5, "<invalid>", "number", "int", 5 ]
						}
, 						{
							"number" : 6,
							"data" : [ 5, "<invalid>", "toggle", "int", 0, 5, "<invalid>", "number", "int", 11, 5, "<invalid>", "number", "int", 0, 5, "<invalid>", "toggle", "int", 1, 5, "<invalid>", "toggle", "int", 0, 5, "<invalid>", "slider", "float", 0.0, 5, "<invalid>", "slider", "float", 11.0, 5, "obj-159", "led", "int", 0, 5, "<invalid>", "slider", "float", 0.0, 5, "<invalid>", "slider", "float", 0.0, 5, "<invalid>", "radiogroup", "int", 3, 5, "<invalid>", "number", "int", 0, 5, "<invalid>", "radiogroup", "int", 1, 5, "<invalid>", "number", "int", 0, 5, "obj-387", "slider", "float", 101.0, 5, "obj-381", "slider", "float", 254.0, 5, "obj-378", "slider", "float", 0.0, 5, "obj-375", "slider", "float", 0.0, 5, "<invalid>", "number", "int", 88, 5, "<invalid>", "slider", "float", 78.0, 5, "<invalid>", "toggle", "int", 1, 5, "<invalid>", "number", "int", 336, 5, "<invalid>", "slider", "float", 326.0, 5, "<invalid>", "number", "int", 28, 5, "<invalid>", "slider", "float", 18.0, 5, "<invalid>", "toggle", "int", 0, 5, "<invalid>", "slider", "float", 0.0, 5, "<invalid>", "slider", "float", 254.0, 5, "<invalid>", "number", "int", 45, 5, "<invalid>", "slider", "float", 35.0, 5, "<invalid>", "number", "int", 93, 5, "<invalid>", "slider", "float", 83.0, 5, "obj-20", "slider", "float", 0.0, 5, "<invalid>", "toggle", "int", 0, 5, "<invalid>", "number", "int", 40, 5, "<invalid>", "slider", "float", 30.0, 8, "<invalid>", "radiogroup", "list", 0, 0, 0, 1, 5, "<invalid>", "slider", "float", 3.193334817886353, 5, "<invalid>", "number", "int", 3 ]
						}
, 						{
							"number" : 7,
							"data" : [ 5, "<invalid>", "toggle", "int", 0, 5, "<invalid>", "number", "int", 54, 5, "<invalid>", "number", "int", 0, 5, "<invalid>", "toggle", "int", 0, 5, "<invalid>", "toggle", "int", 0, 5, "<invalid>", "slider", "float", 0.0, 5, "<invalid>", "slider", "float", 54.0, 5, "obj-159", "led", "int", 0, 5, "<invalid>", "slider", "float", 0.0, 5, "<invalid>", "slider", "float", 0.0, 5, "<invalid>", "radiogroup", "int", 3, 5, "<invalid>", "number", "int", 0, 5, "<invalid>", "radiogroup", "int", 1, 5, "<invalid>", "number", "int", 0, 5, "obj-387", "slider", "float", 0.0, 5, "obj-381", "slider", "float", 0.0, 5, "obj-378", "slider", "float", 254.0, 5, "obj-375", "slider", "float", 0.0, 5, "<invalid>", "number", "int", 88, 5, "<invalid>", "slider", "float", 78.0, 5, "<invalid>", "toggle", "int", 0, 5, "<invalid>", "number", "int", 199, 5, "<invalid>", "slider", "float", 189.0, 5, "<invalid>", "number", "int", 28, 5, "<invalid>", "slider", "float", 18.0, 5, "<invalid>", "toggle", "int", 1, 5, "<invalid>", "slider", "float", 0.0, 5, "<invalid>", "slider", "float", 159.0, 5, "<invalid>", "number", "int", 45, 5, "<invalid>", "slider", "float", 35.0, 5, "<invalid>", "number", "int", 93, 5, "<invalid>", "slider", "float", 83.0, 5, "obj-20", "slider", "float", 181.0, 5, "<invalid>", "toggle", "int", 0, 5, "<invalid>", "number", "int", 40, 5, "<invalid>", "slider", "float", 30.0, 8, "<invalid>", "radiogroup", "list", 0, 0, 0, 0, 5, "<invalid>", "slider", "float", 5.178571224212646, 5, "<invalid>", "number", "int", 5 ]
						}
, 						{
							"number" : 8,
							"data" : [ 5, "<invalid>", "toggle", "int", 0, 5, "<invalid>", "number", "int", 54, 5, "<invalid>", "number", "int", 0, 5, "<invalid>", "toggle", "int", 0, 5, "<invalid>", "toggle", "int", 1, 5, "<invalid>", "slider", "float", 0.0, 5, "<invalid>", "slider", "float", 54.0, 5, "obj-159", "led", "int", 0, 5, "<invalid>", "slider", "float", 0.0, 5, "<invalid>", "slider", "float", 0.0, 5, "<invalid>", "radiogroup", "int", 3, 5, "<invalid>", "number", "int", 0, 5, "<invalid>", "radiogroup", "int", 1, 5, "<invalid>", "number", "int", 0, 5, "obj-387", "slider", "float", 254.0, 5, "obj-381", "slider", "float", 0.0, 5, "obj-378", "slider", "float", 254.0, 5, "obj-375", "slider", "float", 0.0, 5, "<invalid>", "number", "int", 88, 5, "<invalid>", "slider", "float", 78.0, 5, "<invalid>", "toggle", "int", 0, 5, "<invalid>", "number", "int", 199, 5, "<invalid>", "slider", "float", 189.0, 5, "<invalid>", "number", "int", 28, 5, "<invalid>", "slider", "float", 18.0, 5, "<invalid>", "toggle", "int", 1, 5, "<invalid>", "slider", "float", 0.0, 5, "<invalid>", "slider", "float", 159.0, 5, "<invalid>", "number", "int", 45, 5, "<invalid>", "slider", "float", 35.0, 5, "<invalid>", "number", "int", 93, 5, "<invalid>", "slider", "float", 83.0, 5, "obj-20", "slider", "float", 0.0, 5, "<invalid>", "toggle", "int", 0, 5, "<invalid>", "number", "int", 40, 5, "<invalid>", "slider", "float", 30.0, 8, "<invalid>", "radiogroup", "list", 0, 0, 0, 0, 5, "<invalid>", "slider", "float", 5.178571224212646, 5, "<invalid>", "number", "int", 5 ]
						}
 ]
				}

			}
, 			{
				"box" : 				{
					"id" : "obj-102",
					"maxclass" : "newobj",
					"numinlets" : 2,
					"numoutlets" : 1,
					"outlettype" : [ "int" ],
					"patching_rect" : [ 237.166666179895401, 428.499993860721588, 79.0, 21.0 ],
					"text" : "+ 1000"
				}

			}
, 			{
				"box" : 				{
					"id" : "obj-101",
					"maxclass" : "newobj",
					"numinlets" : 2,
					"numoutlets" : 1,
					"outlettype" : [ "int" ],
					"patching_rect" : [ 237.166666179895401, 399.499993860721588, 86.0, 21.0 ],
					"text" : "random 120000"
				}

			}
, 			{
				"box" : 				{
					"id" : "obj-100",
					"maxclass" : "newobj",
					"numinlets" : 0,
					"numoutlets" : 1,
					"outlettype" : [ "" ],
					"patching_rect" : [ 207.333333373069763, 365.499993860721588, 73.0, 21.0 ],
					"text" : "r init_autorun"
				}

			}
, 			{
				"box" : 				{
					"bgcolor" : [ 0.298039215686275, 0.298039215686275, 0.298039215686275, 1.0 ],
					"fontname" : "Arial",
					"fontsize" : 12.0,
					"id" : "obj-85",
					"maxclass" : "comment",
					"numinlets" : 1,
					"numoutlets" : 0,
					"patching_rect" : [ 25.999997586011887, 330.499993860721588, 329.833334982395172, 20.0 ],
					"presentation" : 1,
					"presentation_rect" : [ 25.999997586011887, 330.499993860721588, 329.833334982395172, 20.0 ],
					"text" : "PRESETS",
					"textcolor" : [ 1.0, 1.0, 1.0, 1.0 ]
				}

			}
, 			{
				"box" : 				{
					"id" : "obj-82",
					"maxclass" : "newobj",
					"numinlets" : 0,
					"numoutlets" : 0,
					"patcher" : 					{
						"fileversion" : 1,
						"appversion" : 						{
							"major" : 8,
							"minor" : 5,
							"revision" : 6,
							"architecture" : "x64",
							"modernui" : 1
						}
,
						"classnamespace" : "box",
						"rect" : [ 1205.0, 323.0, 640.0, 480.0 ],
						"bglocked" : 0,
						"openinpresentation" : 0,
						"default_fontsize" : 12.0,
						"default_fontface" : 0,
						"default_fontname" : "Arial",
						"gridonopen" : 1,
						"gridsize" : [ 15.0, 15.0 ],
						"gridsnaponopen" : 1,
						"objectsnaponopen" : 1,
						"statusbarvisible" : 2,
						"toolbarvisible" : 1,
						"lefttoolbarpinned" : 0,
						"toptoolbarpinned" : 0,
						"righttoolbarpinned" : 0,
						"bottomtoolbarpinned" : 0,
						"toolbars_unpinned_last_save" : 0,
						"tallnewobj" : 0,
						"boxanimatetime" : 200,
						"enablehscroll" : 1,
						"enablevscroll" : 1,
						"devicewidth" : 0.0,
						"description" : "",
						"digest" : "",
						"tags" : "",
						"style" : "",
						"subpatcher_template" : "",
						"assistshowspatchername" : 0,
						"boxes" : [ 							{
								"box" : 								{
									"fontname" : "Arial",
									"fontsize" : 11.0,
									"id" : "obj-6",
									"maxclass" : "newobj",
									"numinlets" : 1,
									"numoutlets" : 1,
									"outlettype" : [ "" ],
									"patching_rect" : [ 84.0, 94.200003147125244, 50.0, 21.0 ],
									"text" : "deferlow"
								}

							}
, 							{
								"box" : 								{
									"fontname" : "Arial",
									"fontsize" : 11.0,
									"id" : "obj-5",
									"maxclass" : "newobj",
									"numinlets" : 2,
									"numoutlets" : 0,
									"patching_rect" : [ 273.0, 166.200003147125244, 33.0, 21.0 ],
									"text" : "dac~"
								}

							}
, 							{
								"box" : 								{
									"fontname" : "Arial",
									"fontsize" : 11.0,
									"id" : "obj-3",
									"maxclass" : "newobj",
									"numinlets" : 1,
									"numoutlets" : 0,
									"patching_rect" : [ 193.0, 166.200003147125244, 75.0, 21.0 ],
									"text" : "s init_autorun"
								}

							}
, 							{
								"box" : 								{
									"fontname" : "Arial",
									"fontsize" : 11.0,
									"id" : "obj-2",
									"maxclass" : "newobj",
									"numinlets" : 1,
									"numoutlets" : 4,
									"outlettype" : [ "bang", "bang", "int", "int" ],
									"patching_rect" : [ 84.0, 126.200003147125244, 50.5, 21.0 ],
									"text" : "t b b 1 1"
								}

							}
, 							{
								"box" : 								{
									"fontname" : "Arial",
									"fontsize" : 11.0,
									"id" : "obj-1",
									"maxclass" : "newobj",
									"numinlets" : 1,
									"numoutlets" : 1,
									"outlettype" : [ "bang" ],
									"patching_rect" : [ 84.0, 67.200003147125244, 62.0, 21.0 ],
									"text" : "loadbang"
								}

							}
, 							{
								"box" : 								{
									"id" : "obj-329",
									"maxclass" : "button",
									"numinlets" : 1,
									"numoutlets" : 1,
									"outlettype" : [ "bang" ],
									"parameter_enable" : 0,
									"patching_rect" : [ 50.0, 100.0, 24.0, 24.0 ]
								}

							}
, 							{
								"box" : 								{
									"fontname" : "Arial",
									"fontsize" : 11.0,
									"id" : "obj-157",
									"maxclass" : "newobj",
									"numinlets" : 1,
									"numoutlets" : 0,
									"patching_rect" : [ 117.0, 166.200003147125244, 67.0, 21.0 ],
									"text" : "s init_enttec"
								}

							}
, 							{
								"box" : 								{
									"fontname" : "Arial",
									"fontsize" : 11.0,
									"id" : "obj-126",
									"maxclass" : "newobj",
									"numinlets" : 1,
									"numoutlets" : 0,
									"patching_rect" : [ 84.0, 166.200003147125244, 31.0, 21.0 ],
									"text" : "s init"
								}

							}
 ],
						"lines" : [ 							{
								"patchline" : 								{
									"destination" : [ "obj-6", 0 ],
									"source" : [ "obj-1", 0 ]
								}

							}
, 							{
								"patchline" : 								{
									"destination" : [ "obj-126", 0 ],
									"source" : [ "obj-2", 0 ]
								}

							}
, 							{
								"patchline" : 								{
									"destination" : [ "obj-157", 0 ],
									"source" : [ "obj-2", 1 ]
								}

							}
, 							{
								"patchline" : 								{
									"destination" : [ "obj-3", 0 ],
									"source" : [ "obj-2", 2 ]
								}

							}
, 							{
								"patchline" : 								{
									"destination" : [ "obj-5", 0 ],
									"source" : [ "obj-2", 3 ]
								}

							}
, 							{
								"patchline" : 								{
									"destination" : [ "obj-2", 0 ],
									"source" : [ "obj-329", 0 ]
								}

							}
, 							{
								"patchline" : 								{
									"destination" : [ "obj-2", 0 ],
									"source" : [ "obj-6", 0 ]
								}

							}
 ]
					}
,
					"patching_rect" : [ 1244.804932000000008, 249.000000476837158, 32.0, 21.0 ],
					"saved_object_attributes" : 					{
						"description" : "",
						"digest" : "",
						"globalpatchername" : "",
						"tags" : ""
					}
,
					"text" : "p init"
				}

			}
, 			{
				"box" : 				{
					"fontname" : "Arial",
					"fontsize" : 12.0,
					"id" : "obj-49",
					"linecount" : 3,
					"maxclass" : "comment",
					"numinlets" : 1,
					"numoutlets" : 0,
					"patching_rect" : [ 27.549998164176941, 465.499993860721588, 165.333334386348724, 47.0 ],
					"presentation" : 1,
					"presentation_linecount" : 3,
					"presentation_rect" : [ 86.549998164176941, 372.899991303682327, 138.333334386348724, 47.0 ],
					"text" : "Click = Call\nShift-click = Store\nAlt-Shift-Click = Delete"
				}

			}
, 			{
				"box" : 				{
					"id" : "obj-45",
					"maxclass" : "newobj",
					"numinlets" : 2,
					"numoutlets" : 1,
					"outlettype" : [ "int" ],
					"patching_rect" : [ 165.833329766988754, 428.499993860721588, 55.0, 21.0 ],
					"text" : "random 8"
				}

			}
, 			{
				"box" : 				{
					"id" : "obj-46",
					"maxclass" : "newobj",
					"numinlets" : 2,
					"numoutlets" : 1,
					"outlettype" : [ "bang" ],
					"patching_rect" : [ 165.833329766988754, 398.499993860721588, 64.0, 21.0 ],
					"text" : "metro 1000"
				}

			}
, 			{
				"box" : 				{
					"id" : "obj-47",
					"maxclass" : "toggle",
					"numinlets" : 1,
					"numoutlets" : 1,
					"outlettype" : [ "int" ],
					"parameter_enable" : 0,
					"patching_rect" : [ 165.833329766988754, 365.499993860721588, 24.0, 24.0 ],
					"presentation" : 1,
					"presentation_rect" : [ 239.166665494441986, 372.899991303682327, 24.0, 24.0 ]
				}

			}
, 			{
				"box" : 				{
					"fontname" : "Arial",
					"fontsize" : 12.0,
					"id" : "obj-4",
					"maxclass" : "comment",
					"numinlets" : 1,
					"numoutlets" : 0,
					"patching_rect" : [ 291.166662454605103, 365.499993860721588, 89.333334386348724, 20.0 ],
					"presentation" : 1,
					"presentation_rect" : [ 266.499998182058334, 374.899991303682327, 89.333334386348724, 20.0 ],
					"text" : "RUN AUTO"
				}

			}
, 			{
				"box" : 				{
					"fontname" : "Arial",
					"fontsize" : 9.0,
					"id" : "obj-373",
					"maxclass" : "message",
					"numinlets" : 2,
					"numoutlets" : 1,
					"outlettype" : [ "" ],
					"patching_rect" : [ 434.999990105628967, 170.000008046627045, 29.5, 19.0 ],
					"text" : "5 $1"
				}

			}
, 			{
				"box" : 				{
					"id" : "obj-375",
					"knobcolor" : [ 1.0, 1.0, 1.0, 0.9 ],
					"maxclass" : "slider",
					"numinlets" : 1,
					"numoutlets" : 1,
					"orientation" : 2,
					"outlettype" : [ "" ],
					"parameter_enable" : 0,
					"patching_rect" : [ 441.0, 87.966673612594604, 24.0, 66.0 ],
					"presentation" : 1,
					"presentation_rect" : [ 348.0, 87.966673612594604, 25.0, 109.0 ],
					"size" : 255.0
				}

			}
, 			{
				"box" : 				{
					"fontname" : "Arial",
					"fontsize" : 9.0,
					"id" : "obj-376",
					"maxclass" : "message",
					"numinlets" : 2,
					"numoutlets" : 1,
					"outlettype" : [ "" ],
					"patching_rect" : [ 475.583329766988754, 170.000008046627045, 29.5, 19.0 ],
					"text" : "4 $1"
				}

			}
, 			{
				"box" : 				{
					"id" : "obj-378",
					"knobcolor" : [ 0.870588235294118, 0.866666666666667, 0.866666666666667, 1.0 ],
					"maxclass" : "slider",
					"numinlets" : 1,
					"numoutlets" : 1,
					"orientation" : 2,
					"outlettype" : [ "" ],
					"parameter_enable" : 0,
					"patching_rect" : [ 477.583339661359787, 87.966673612594604, 24.0, 66.0 ],
					"presentation" : 1,
					"presentation_rect" : [ 384.583339661359787, 87.966673612594604, 25.0, 109.0 ],
					"size" : 189.0
				}

			}
, 			{
				"box" : 				{
					"fontname" : "Arial",
					"fontsize" : 9.0,
					"id" : "obj-379",
					"maxclass" : "message",
					"numinlets" : 2,
					"numoutlets" : 1,
					"outlettype" : [ "" ],
					"patching_rect" : [ 395.666662991046906, 171.766687989234924, 29.5, 19.0 ],
					"text" : "3 $1"
				}

			}
, 			{
				"box" : 				{
					"id" : "obj-381",
					"knobcolor" : [ 0.584313725490196, 0.698039215686274, 0.831372549019608, 1.0 ],
					"maxclass" : "slider",
					"numinlets" : 1,
					"numoutlets" : 1,
					"orientation" : 2,
					"outlettype" : [ "" ],
					"parameter_enable" : 0,
					"patching_rect" : [ 402.666672885417938, 87.966673612594604, 24.0, 66.0 ],
					"presentation" : 1,
					"presentation_rect" : [ 312.666672885417938, 87.966673612594604, 25.0, 109.0 ],
					"size" : 255.0
				}

			}
, 			{
				"box" : 				{
					"fontname" : "Arial",
					"fontsize" : 9.0,
					"id" : "obj-383",
					"maxclass" : "message",
					"numinlets" : 2,
					"numoutlets" : 1,
					"outlettype" : [ "" ],
					"patching_rect" : [ 373.399998843669891, 171.766687989234924, 29.5, 19.0 ],
					"text" : "2 $1"
				}

			}
, 			{
				"box" : 				{
					"id" : "obj-384",
					"maxclass" : "newobj",
					"numinlets" : 1,
					"numoutlets" : 0,
					"patching_rect" : [ 335.649998843669891, 202.766688048839569, 64.0, 21.0 ],
					"text" : "s dmxdata"
				}

			}
, 			{
				"box" : 				{
					"fontname" : "Arial",
					"fontsize" : 9.0,
					"id" : "obj-385",
					"maxclass" : "message",
					"numinlets" : 2,
					"numoutlets" : 1,
					"outlettype" : [ "" ],
					"patching_rect" : [ 335.666663587093353, 171.766687989234924, 29.5, 19.0 ],
					"text" : "1 $1"
				}

			}
, 			{
				"box" : 				{
					"id" : "obj-387",
					"knobcolor" : [ 0.631372549019608, 0.392156862745098, 0.36078431372549, 1.0 ],
					"maxclass" : "slider",
					"numinlets" : 1,
					"numoutlets" : 1,
					"orientation" : 2,
					"outlettype" : [ "" ],
					"parameter_enable" : 0,
					"patching_rect" : [ 335.666663587093353, 87.966673612594604, 24.0, 66.0 ],
					"presentation" : 1,
					"presentation_rect" : [ 245.666663587093353, 87.966673612594604, 25.0, 109.0 ],
					"size" : 255.0
				}

			}
, 			{
				"box" : 				{
					"bgcolor" : [ 0.76078431372549, 0.341176470588235, 0.227450980392157, 1.0 ],
					"fontname" : "Arial",
					"fontsize" : 12.0,
					"id" : "obj-1",
					"maxclass" : "comment",
					"numinlets" : 1,
					"numoutlets" : 0,
					"patching_rect" : [ 16.999996721744537, 25.499993979930878, 263.333343476057053, 20.0 ],
					"presentation" : 1,
					"presentation_rect" : [ 16.999996721744537, 25.499993979930878, 197.333343476057053, 20.0 ],
					"text" : "LED STROBE",
					"textcolor" : [ 1.0, 1.0, 1.0, 1.0 ]
				}

			}
, 			{
				"box" : 				{
					"bgcolor" : [ 0.831373, 0.85098, 0.858824, 1.0 ],
					"id" : "obj-159",
					"maxclass" : "led",
					"numinlets" : 1,
					"numoutlets" : 1,
					"offcolor" : [ 0.376471, 0.4, 0.372549, 1.0 ],
					"oncolor" : [ 0.0, 0.85098, 0.278431, 1.0 ],
					"outlettype" : [ "int" ],
					"parameter_enable" : 0,
					"patching_rect" : [ 511.166672170162201, 474.199993550777435, 18.0, 18.0 ]
				}

			}
, 			{
				"box" : 				{
					"fontname" : "Arial",
					"fontsize" : 11.0,
					"id" : "obj-167",
					"maxclass" : "newobj",
					"numinlets" : 0,
					"numoutlets" : 1,
					"outlettype" : [ "" ],
					"patching_rect" : [ 491.666672170162201, 367.199993550777435, 79.0, 21.0 ],
					"text" : "r init_enttec"
				}

			}
, 			{
				"box" : 				{
					"fontname" : "Arial",
					"fontsize" : 11.0,
					"id" : "obj-222",
					"maxclass" : "newobj",
					"numinlets" : 0,
					"numoutlets" : 1,
					"outlettype" : [ "" ],
					"patching_rect" : [ 447.666672170162201, 416.966673612594604, 100.0, 21.0 ],
					"text" : "r dmxdata"
				}

			}
, 			{
				"box" : 				{
					"fontname" : "Arial",
					"fontsize" : 11.0,
					"id" : "obj-223",
					"maxclass" : "message",
					"numinlets" : 2,
					"numoutlets" : 1,
					"outlettype" : [ "" ],
					"patching_rect" : [ 434.666672170162201, 390.199993550777435, 40.0, 21.0 ],
					"text" : "COM3"
				}

			}
, 			{
				"box" : 				{
					"color" : [ 1.0, 0.890196, 0.090196, 1.0 ],
					"fontname" : "Arial",
					"fontsize" : 11.0,
					"id" : "obj-225",
					"maxclass" : "newobj",
					"numinlets" : 1,
					"numoutlets" : 3,
					"outlettype" : [ "", "", "" ],
					"patching_rect" : [ 434.666672170162201, 449.199993550777435, 171.0, 21.0 ],
					"text" : "dmxusbpro @baudrate 57600"
				}

			}
, 			{
				"box" : 				{
					"bgcolor" : [ 0.501960784313725, 0.501960784313725, 0.501960784313725, 1.0 ],
					"fontname" : "Arial",
					"fontsize" : 12.0,
					"id" : "obj-9",
					"maxclass" : "comment",
					"numinlets" : 1,
					"numoutlets" : 0,
					"patching_rect" : [ 434.666672170162201, 335.499993860721588, 117.833334982395172, 20.0 ],
					"text" : "ENTTEC",
					"textcolor" : [ 1.0, 1.0, 1.0, 1.0 ]
				}

			}
 ],
		"lines" : [ 			{
				"patchline" : 				{
					"destination" : [ "obj-8", 0 ],
					"source" : [ "obj-10", 0 ]
				}

			}
, 			{
				"patchline" : 				{
					"destination" : [ "obj-47", 0 ],
					"source" : [ "obj-100", 0 ]
				}

			}
, 			{
				"patchline" : 				{
					"destination" : [ "obj-102", 0 ],
					"source" : [ "obj-101", 0 ]
				}

			}
, 			{
				"patchline" : 				{
					"destination" : [ "obj-24", 0 ],
					"order" : 0,
					"source" : [ "obj-102", 0 ]
				}

			}
, 			{
				"patchline" : 				{
					"destination" : [ "obj-46", 1 ],
					"order" : 1,
					"source" : [ "obj-102", 0 ]
				}

			}
, 			{
				"patchline" : 				{
					"destination" : [ "obj-117", 0 ],
					"source" : [ "obj-103", 0 ]
				}

			}
, 			{
				"patchline" : 				{
					"destination" : [ "obj-47", 0 ],
					"source" : [ "obj-105", 2 ]
				}

			}
, 			{
				"patchline" : 				{
					"destination" : [ "obj-121", 0 ],
					"source" : [ "obj-114", 0 ]
				}

			}
, 			{
				"patchline" : 				{
					"destination" : [ "obj-122", 0 ],
					"source" : [ "obj-115", 0 ]
				}

			}
, 			{
				"patchline" : 				{
					"destination" : [ "obj-115", 0 ],
					"source" : [ "obj-116", 0 ]
				}

			}
, 			{
				"patchline" : 				{
					"destination" : [ "obj-122", 0 ],
					"source" : [ "obj-117", 0 ]
				}

			}
, 			{
				"patchline" : 				{
					"destination" : [ "obj-117", 0 ],
					"source" : [ "obj-118", 0 ]
				}

			}
, 			{
				"patchline" : 				{
					"destination" : [ "obj-122", 0 ],
					"source" : [ "obj-119", 0 ]
				}

			}
, 			{
				"patchline" : 				{
					"destination" : [ "obj-119", 0 ],
					"source" : [ "obj-120", 0 ]
				}

			}
, 			{
				"patchline" : 				{
					"destination" : [ "obj-122", 0 ],
					"source" : [ "obj-121", 0 ]
				}

			}
, 			{
				"patchline" : 				{
					"destination" : [ "obj-122", 0 ],
					"source" : [ "obj-123", 0 ]
				}

			}
, 			{
				"patchline" : 				{
					"destination" : [ "obj-123", 0 ],
					"source" : [ "obj-124", 0 ]
				}

			}
, 			{
				"patchline" : 				{
					"destination" : [ "obj-223", 0 ],
					"source" : [ "obj-167", 0 ]
				}

			}
, 			{
				"patchline" : 				{
					"destination" : [ "obj-383", 0 ],
					"source" : [ "obj-20", 0 ]
				}

			}
, 			{
				"patchline" : 				{
					"destination" : [ "obj-225", 0 ],
					"source" : [ "obj-222", 0 ]
				}

			}
, 			{
				"patchline" : 				{
					"destination" : [ "obj-225", 0 ],
					"source" : [ "obj-223", 0 ]
				}

			}
, 			{
				"patchline" : 				{
					"destination" : [ "obj-159", 0 ],
					"source" : [ "obj-225", 1 ]
				}

			}
, 			{
				"patchline" : 				{
					"destination" : [ "obj-40", 1 ],
					"source" : [ "obj-24", 0 ]
				}

			}
, 			{
				"patchline" : 				{
					"destination" : [ "obj-376", 0 ],
					"source" : [ "obj-32", 0 ]
				}

			}
, 			{
				"patchline" : 				{
					"destination" : [ "obj-384", 0 ],
					"source" : [ "obj-373", 0 ]
				}

			}
, 			{
				"patchline" : 				{
					"destination" : [ "obj-373", 0 ],
					"source" : [ "obj-375", 0 ]
				}

			}
, 			{
				"patchline" : 				{
					"destination" : [ "obj-384", 0 ],
					"source" : [ "obj-376", 0 ]
				}

			}
, 			{
				"patchline" : 				{
					"destination" : [ "obj-376", 0 ],
					"source" : [ "obj-378", 0 ]
				}

			}
, 			{
				"patchline" : 				{
					"destination" : [ "obj-384", 0 ],
					"source" : [ "obj-379", 0 ]
				}

			}
, 			{
				"patchline" : 				{
					"destination" : [ "obj-379", 0 ],
					"source" : [ "obj-381", 0 ]
				}

			}
, 			{
				"patchline" : 				{
					"destination" : [ "obj-384", 0 ],
					"source" : [ "obj-383", 0 ]
				}

			}
, 			{
				"patchline" : 				{
					"destination" : [ "obj-384", 0 ],
					"source" : [ "obj-385", 0 ]
				}

			}
, 			{
				"patchline" : 				{
					"destination" : [ "obj-385", 0 ],
					"source" : [ "obj-387", 0 ]
				}

			}
, 			{
				"patchline" : 				{
					"destination" : [ "obj-55", 0 ],
					"source" : [ "obj-41", 0 ]
				}

			}
, 			{
				"patchline" : 				{
					"destination" : [ "obj-105", 0 ],
					"midpoints" : [ 175.333329766988754, 480.999993860721588, 19.849997043609619, 480.999993860721588, 19.849997043609619, 365.899991303682327, 37.049998164176941, 365.899991303682327 ],
					"source" : [ "obj-45", 0 ]
				}

			}
, 			{
				"patchline" : 				{
					"destination" : [ "obj-101", 0 ],
					"order" : 0,
					"source" : [ "obj-46", 0 ]
				}

			}
, 			{
				"patchline" : 				{
					"destination" : [ "obj-45", 0 ],
					"order" : 1,
					"source" : [ "obj-46", 0 ]
				}

			}
, 			{
				"patchline" : 				{
					"destination" : [ "obj-46", 0 ],
					"source" : [ "obj-47", 0 ]
				}

			}
, 			{
				"patchline" : 				{
					"destination" : [ "obj-60", 0 ],
					"source" : [ "obj-52", 0 ]
				}

			}
, 			{
				"patchline" : 				{
					"destination" : [ "obj-61", 0 ],
					"source" : [ "obj-53", 0 ]
				}

			}
, 			{
				"patchline" : 				{
					"destination" : [ "obj-53", 0 ],
					"source" : [ "obj-54", 0 ]
				}

			}
, 			{
				"patchline" : 				{
					"destination" : [ "obj-61", 0 ],
					"source" : [ "obj-55", 0 ]
				}

			}
, 			{
				"patchline" : 				{
					"destination" : [ "obj-55", 0 ],
					"source" : [ "obj-56", 0 ]
				}

			}
, 			{
				"patchline" : 				{
					"destination" : [ "obj-61", 0 ],
					"source" : [ "obj-57", 0 ]
				}

			}
, 			{
				"patchline" : 				{
					"destination" : [ "obj-57", 0 ],
					"source" : [ "obj-59", 0 ]
				}

			}
, 			{
				"patchline" : 				{
					"destination" : [ "obj-61", 0 ],
					"source" : [ "obj-60", 0 ]
				}

			}
, 			{
				"patchline" : 				{
					"destination" : [ "obj-61", 0 ],
					"source" : [ "obj-62", 0 ]
				}

			}
, 			{
				"patchline" : 				{
					"destination" : [ "obj-62", 0 ],
					"source" : [ "obj-63", 0 ]
				}

			}
, 			{
				"patchline" : 				{
					"destination" : [ "obj-83", 0 ],
					"source" : [ "obj-69", 0 ]
				}

			}
, 			{
				"patchline" : 				{
					"destination" : [ "obj-225", 0 ],
					"source" : [ "obj-7", 0 ]
				}

			}
, 			{
				"patchline" : 				{
					"destination" : [ "obj-223", 0 ],
					"source" : [ "obj-70", 0 ]
				}

			}
, 			{
				"patchline" : 				{
					"destination" : [ "obj-69", 0 ],
					"source" : [ "obj-73", 0 ]
				}

			}
, 			{
				"patchline" : 				{
					"destination" : [ "obj-83", 0 ],
					"source" : [ "obj-74", 0 ]
				}

			}
, 			{
				"patchline" : 				{
					"destination" : [ "obj-74", 0 ],
					"source" : [ "obj-76", 0 ]
				}

			}
, 			{
				"patchline" : 				{
					"destination" : [ "obj-83", 0 ],
					"source" : [ "obj-77", 0 ]
				}

			}
, 			{
				"patchline" : 				{
					"destination" : [ "obj-77", 0 ],
					"order" : 0,
					"source" : [ "obj-79", 0 ]
				}

			}
, 			{
				"patchline" : 				{
					"destination" : [ "obj-91", 0 ],
					"midpoints" : [ 271.633331120014191, 163.199993669986725, 254.766664981842041, 163.199993669986725, 254.766664981842041, 92.966673612594604, 187.899998843669891, 92.966673612594604 ],
					"order" : 1,
					"source" : [ "obj-79", 0 ]
				}

			}
, 			{
				"patchline" : 				{
					"destination" : [ "obj-83", 0 ],
					"source" : [ "obj-8", 0 ]
				}

			}
, 			{
				"patchline" : 				{
					"destination" : [ "obj-83", 0 ],
					"source" : [ "obj-80", 0 ]
				}

			}
, 			{
				"patchline" : 				{
					"destination" : [ "obj-83", 0 ],
					"source" : [ "obj-84", 0 ]
				}

			}
, 			{
				"patchline" : 				{
					"destination" : [ "obj-84", 0 ],
					"source" : [ "obj-87", 0 ]
				}

			}
, 			{
				"patchline" : 				{
					"destination" : [ "obj-92", 0 ],
					"source" : [ "obj-91", 1 ]
				}

			}
, 			{
				"patchline" : 				{
					"destination" : [ "obj-93", 0 ],
					"source" : [ "obj-91", 0 ]
				}

			}
, 			{
				"patchline" : 				{
					"destination" : [ "obj-80", 0 ],
					"source" : [ "obj-92", 0 ]
				}

			}
, 			{
				"patchline" : 				{
					"destination" : [ "obj-80", 0 ],
					"source" : [ "obj-93", 0 ]
				}

			}
 ],
		"dependency_cache" : [ 			{
				"name" : "dmxusbpro.mxo",
				"type" : "iLaX"
			}
 ],
		"autosave" : 0,
		"styles" : [ 			{
				"name" : "AudioStatus_Menu",
				"default" : 				{
					"bgfillcolor" : 					{
						"angle" : 270,
						"autogradient" : 0,
						"color" : [ 0.294118, 0.313726, 0.337255, 1 ],
						"color1" : [ 0.454902, 0.462745, 0.482353, 0 ],
						"color2" : [ 0.290196, 0.309804, 0.301961, 1 ],
						"proportion" : 0.39,
						"type" : "color"
					}

				}
,
				"parentstyle" : "",
				"multi" : 0
			}
 ],
		"bgcolor" : [ 0.592156862745098, 0.592156862745098, 0.592156862745098, 1.0 ]
	}

}
